<svg width="224" height="224" viewBox="0 0 224 224" fill="none" xmlns="http://www.w3.org/2000/svg">
<rect width="224" height="224" rx="20" fill="black"/>
<path d="M181.886 103.023C181.882 87.4304 169.018 74.8026 153.154 74.8005C146.16 74.7993 139.738 77.2674 134.754 81.3556C134.011 81.9657 132.918 81.9221 132.231 81.249C130.917 79.9623 131.915 77.0343 133.751 77.1264C134.488 77.1634 135.235 77.1992 135.993 77.2336C136.73 77.2658 137.417 76.8412 137.707 76.1721C137.997 75.5031 137.831 74.7202 137.294 74.2223C136.432 73.4197 136.944 71.9807 138.115 71.8515C141.675 71.4587 146.205 70.7537 150.753 69.4874C151.363 69.3163 151.832 68.8442 151.988 68.2387C152.144 67.636 151.966 67.0005 151.513 66.5627C149.167 64.4759 148.049 59.9702 150.292 57.7738C153.921 54.2201 156.71 50.7749 156.824 50.726C156.825 50.7258 156.825 50.7257 156.825 50.7254C156.826 50.7248 156.827 50.724 156.827 50.7231L156.831 50.7182C156.944 50.5825 157.034 50.435 157.099 50.2808C157.316 49.7679 157.438 49.1829 157.43 48.6259C157.402 46.836 154.66 46.9609 152.872 47.0352C149.94 47.157 145.13 47.4494 140.729 48.4037C138.728 48.8375 136.71 46.8784 136.744 44.8317C136.746 43.9748 136.634 43.0704 136.351 42.1577C136.168 41.5613 135.671 41.1045 135.053 40.9656C134.435 40.8252 133.786 41.02 133.354 41.4782C131.007 43.9629 128.927 46.1477 127.209 47.9425C125.404 49.8286 122.351 49.3665 121.408 46.9324C121.137 46.2368 120.443 45.7843 119.687 45.8108C118.933 45.8346 118.271 46.3353 118.052 47.0455C116.961 50.5694 110.634 50.0556 109.512 46.5415C107.242 39.4349 103.378 32.7209 96.7588 28.5124C95.0881 27.5074 92.9035 28.0263 91.8822 29.6703C90.8588 31.317 91.3854 33.4666 93.059 34.4715C96.1823 36.1955 98.5852 39.2534 100.416 42.9628C101.074 44.295 99.6794 45.7065 98.2329 45.3677C97.8456 45.277 97.4883 45.0598 97.2321 44.7554C95.8527 43.1166 94.02 41.471 91.6736 39.8433C86.8602 36.494 82.3938 35.0106 78.4342 35.0085C69.1849 35.0365 63.8073 43.0257 63.7924 50.7482C63.7796 55.5732 65.8726 60.5588 70.4866 63.661C71.2957 64.2057 72.3986 64.0004 72.9529 63.207C73.5058 62.4102 73.3 61.3228 72.4909 60.7802C68.9607 58.3995 67.3524 54.6346 67.3425 50.7482C67.3929 44.4274 71.5633 38.5122 78.4349 38.5004C81.4747 38.4983 85.2406 39.6464 89.6274 42.694C90.6356 43.3965 90.1576 44.9761 88.9844 45.3416C85.0355 46.5721 81.7888 49.682 81.7799 55.2373C81.7884 60.2753 85.5088 62.9773 89.2846 62.9857C94.4415 62.9472 100.422 59.0427 100.551 52.6722C100.547 51.4456 101.78 50.3766 102.811 51.0413C102.885 51.0896 102.959 51.1382 103.031 51.1868C103.328 51.3866 103.532 51.6948 103.618 52.0422C105.335 59.0137 105.837 66.3718 105.734 71.2326C105.734 72.6687 104.709 73.876 103.337 74.2988C101.79 74.7755 100.299 75.377 98.8773 76.0916C94.275 78.4045 88.4036 78.405 83.8024 76.09C79.8804 74.1168 75.4363 73.0016 70.735 73.0016C54.8682 73.0037 42.0021 85.6308 42 101.226C42.0009 107.975 44.4136 114.166 48.436 119.019C52.6774 124.136 55.1853 131.277 55.1876 137.923C55.1896 152.11 65.8393 163.834 79.7071 165.838C80.6653 165.976 81.3782 166.807 81.3782 167.776C81.3817 183.37 94.2457 195.998 110.111 196C125.976 195.998 138.84 183.37 138.844 167.776C138.844 166.69 139.608 165.74 140.67 165.517C153.635 162.792 163.36 151.481 163.362 137.923C163.364 133.362 165.736 128.792 169.506 126.224C176.985 121.132 181.884 112.644 181.886 103.023ZM97.0001 52.6722C96.9916 56.4881 92.7545 59.4876 89.2832 59.4938C86.8886 59.313 85.4868 58.6537 85.3278 55.238C85.4627 49.7999 88.5415 48.4101 93.1839 48.2055C94.6796 48.1606 96.091 49.0397 96.5945 50.4488C96.8834 51.2571 97.0037 52.0019 97.0001 52.6722ZM118.912 56.3245C119.318 54.9933 121.108 54.909 122.131 55.8526C122.844 56.4664 123.922 56.4203 124.578 55.7464C124.581 55.7439 126.282 53.9998 129.131 51.0273C130.136 49.9785 131.69 50.9145 131.623 52.3656C131.623 52.8622 131.698 53.4048 131.932 53.9419C132.169 54.4908 132.669 54.877 133.266 54.9768C133.861 55.0774 134.463 54.8749 134.872 54.4342C135.994 53.0067 141.466 51.5674 146.339 51.0611C146.394 51.0544 146.449 51.0477 146.504 51.0411C148.634 50.7867 149.822 53.2555 148.302 54.768C145.123 57.9931 140.994 61.3661 138.895 61.8606C138.317 62.0177 137.857 62.4514 137.675 63.0129C137.505 63.5363 137.597 64.109 137.92 64.5538C137.966 64.6175 138.023 64.6755 138.083 64.7269C139.416 65.8777 139.405 68.1921 137.654 68.3825C135.418 68.6254 133.585 68.7417 132.428 68.7986C131.576 68.8405 130.471 68.7628 129.859 69.3571C129.699 69.5128 129.568 69.7002 129.475 69.9127C129.198 70.5461 129.324 71.278 129.8 71.7843C130.387 72.3951 129.921 73.4232 129.076 73.3725C126.855 73.2392 124.788 73.1003 122.919 72.9653C120.067 72.7592 118.958 69.3409 121.254 67.6368C125.024 64.8393 130.214 61.4573 136.37 58.6642C136.727 58.5036 136.883 58.0894 136.717 57.7395C136.554 57.3876 136.133 57.2346 135.775 57.3974C131.058 59.539 126.902 62.0164 123.499 64.3244C120.796 66.1582 116.748 63.471 117.693 60.344C118.084 59.0503 118.493 57.7042 118.912 56.3245ZM107.868 80.3735C108.182 80.3143 108.503 80.3485 108.821 80.3742C109.004 80.3884 109.185 80.3877 109.361 80.3735C110.229 80.304 111.072 79.988 111.941 79.9866C123.896 80.0061 133.556 89.5018 133.576 101.227C133.556 112.949 123.896 122.445 111.941 122.465C99.9888 122.445 90.3286 112.949 90.3066 101.227C90.3269 90.868 97.8696 82.2554 107.868 80.3735ZM49.0959 101.226C49.1179 89.5011 58.7788 80.0054 70.7329 79.9859C72.0228 79.9859 73.2851 80.0963 74.511 80.3082C83.0563 81.7849 83.2119 92.5539 83.2107 101.226C83.2119 109.892 83.0614 120.658 74.5232 122.14C73.2933 122.353 72.0269 122.465 70.7329 122.465C58.7788 122.444 49.1179 112.949 49.0959 101.226ZM62.2856 137.923C62.2856 136.864 62.365 135.826 62.5177 134.812C63.0747 131.115 66.9942 129.448 70.7329 129.448C75.2342 129.448 79.497 128.426 83.2923 126.608C88.218 124.248 94.4129 124.22 99.3357 126.585C101.639 127.692 103.86 129.303 104.619 131.742C105.226 133.694 105.554 135.766 105.555 137.923C105.533 149.648 95.8724 159.141 83.9204 159.163C71.9685 159.141 62.3055 149.648 62.2856 137.923ZM110.112 189.016C98.1591 188.993 88.4968 179.5 88.4769 167.776C88.4769 166.595 89.3919 165.654 90.5422 165.388C92.4389 164.948 94.263 164.324 95.9937 163.536C103.229 160.24 115.322 160.242 122.557 163.539C124.858 164.588 127.325 165.347 129.909 165.766C130.927 165.932 131.747 166.744 131.747 167.776C131.724 179.5 122.064 188.993 110.112 189.016ZM156.267 137.923C156.245 149.648 146.584 159.141 134.632 159.163C122.678 159.141 113.018 149.648 112.995 137.923C112.996 137.221 113.031 136.527 113.099 135.844C113.515 131.655 117.651 129.201 121.622 127.804C127.821 125.621 135.255 126.031 141.253 128.717C144.88 130.342 148.912 131.248 153.154 131.248C154.333 131.248 155.433 131.945 155.705 133.093C156.072 134.642 156.266 136.257 156.267 137.923ZM153.153 124.263C151.508 124.263 149.907 124.084 148.369 123.743C139.919 121.873 140.21 111.263 140.64 102.62C140.663 102.158 140.675 101.693 140.675 101.226C140.674 93.2435 141.277 83.6025 149.127 82.1518C150.43 81.9109 151.776 81.7849 153.153 81.7849C165.106 81.8051 174.767 91.3001 174.788 103.023C174.767 114.748 165.106 124.241 153.153 124.263Z" fill="white"/>
<path d="M111.942 118.787C117.973 118.787 123.309 115.823 126.512 111.298C126.734 110.98 126.656 110.546 126.334 110.324C126.013 110.103 125.57 110.182 125.347 110.497C122.394 114.665 117.495 117.389 111.941 117.389C111.549 117.389 111.232 117.703 111.232 118.089C111.232 118.475 111.55 118.787 111.942 118.787Z" fill="white"/>
<path d="M127.942 107.139C128.314 107.256 128.715 107.054 128.835 106.686C129.387 104.998 129.687 103.196 129.687 101.329C129.687 100.942 129.368 100.629 128.976 100.629C128.583 100.629 128.267 100.943 128.267 101.329C128.267 103.05 127.991 104.707 127.483 106.258C127.364 106.626 127.568 107.02 127.942 107.139Z" fill="white"/>
</svg>
